<?xml version="1.0" encoding="utf-8"?>
<!-- Generator: Adobe Illustrator 24.0.1, SVG Export Plug-In . SVG Version: 6.00 Build 0)  -->
<svg version="1.1" xmlns="http://www.w3.org/2000/svg" xmlns:xlink="http://www.w3.org/1999/xlink" x="0px" y="0px"
	 viewBox="0 0 425.2 425.2" style="enable-background:new 0 0 425.2 425.2;" xml:space="preserve">
<style type="text/css">
	.st0{fill:#007BFF;}
	.st1{fill:#FFFDFD;}
	.st2{fill:#FFFFFF;}
</style>
<g id="Capa_1" focusable="false">
	<rect class="st0" width="425.2" height="425.2"/>
</g>
<g id="Capa_2">
	<g>
		<g>
			<path class="st1" d="M366.8,350.3l4.7,4.7l25-25l-28.2-28.2l-69.8-69.8l-22.1-22.1l-25,25l4.7,4.7c5.2,5.2,5.6,13.1,1,17.7
				c-4.6,4.6-12.6,4.1-17.7-1l-4.7-4.7l-25,25l120.1,120.1l25-25l-4.7-4.7c-5.2-5.2-5.6-13.1-1-17.7
				C353.7,344.7,361.7,345.1,366.8,350.3z"/>
		</g>
	</g>
	<rect x="27.9" y="27.4" class="st2" width="149.8" height="149.8"/>
	<rect x="57" y="55.9" class="st0" width="92.7" height="92.7"/>
	<rect x="246.2" y="27.4" class="st2" width="149.8" height="149.8"/>
	<rect x="275.2" y="55.9" class="st0" width="92.7" height="92.7"/>
	<rect x="28" y="246.2" class="st2" width="149.8" height="149.8"/>
	<rect x="57.1" y="274.7" class="st0" width="92.7" height="92.7"/>
	<circle class="st0" cx="332.3" cy="332.5" r="7.6"/>
	<circle class="st0" cx="315.2" cy="349.6" r="7.6"/>
	<circle class="st0" cx="299" cy="365.9" r="7.6"/>
	<circle class="st0" cx="365.7" cy="299.1" r="7.6"/>
	<circle class="st0" cx="348.8" cy="316" r="7.6"/>
</g>
</svg>
